<?xml version="1.0" encoding="UTF-8" standalone="no"?>
<!DOCTYPE svg PUBLIC "-//W3C//DTD SVG 1.1//EN" "http://www.w3.org/Graphics/SVG/1.1/DTD/svg11.dtd">
<svg width="100%" height="100%" viewBox="0 0 30 30" version="1.1" xmlns="http://www.w3.org/2000/svg" xmlns:xlink="http://www.w3.org/1999/xlink" xml:space="preserve" style="fill-rule:evenodd;clip-rule:evenodd;stroke-linejoin:round;stroke-miterlimit:1.41421;">
    <g transform="matrix(0.0642857,0,0,0.0642857,-1.45688,-1.45714)">
        <path d="M286,348.088L293.195,254.349C293.233,253.959 293.252,253.568 293.252,253.177C293.252,246.496 287.754,240.999 281.074,240.999C281.012,240.999 280.951,240.999 280.889,241L231.111,241C231.047,240.999 230.983,240.998 230.918,240.998C224.24,240.998 218.744,246.494 218.744,253.172C218.744,253.561 218.763,253.949 218.8,254.335L225.416,348.465C227.434,345.864 229.753,343.51 232.323,341.452C230.609,337.894 229.719,333.995 229.719,330.046C229.719,315.63 241.581,303.767 255.998,303.767C270.414,303.767 282.277,315.63 282.277,330.046C282.277,334.06 281.357,338.021 279.588,341.625C281.936,343.56 284.084,345.725 286,348.088L286,348.088Z" style="fill:rgb(29,130,234);fill-rule:nonzero;"/>
        <path d="M241.721,330.059C241.721,333.511 242.975,336.847 245.248,339.445C245.288,339.489 245.328,339.532 245.367,339.578C248.073,342.595 251.939,344.322 255.992,344.322C263.821,344.322 270.263,337.879 270.263,330.051C270.263,322.222 263.821,315.78 255.992,315.78C248.163,315.78 241.721,322.222 241.721,330.051C241.721,330.053 241.721,330.056 241.721,330.059Z" style="fill:rgb(29,130,234);fill-rule:nonzero;"/>
        <path d="M104.858,363C104.722,353 104.569,340.6 104.413,327.916C100.118,338 97.693,352 96.811,363L104.858,363Z" style="fill:rgb(29,130,234);fill-rule:nonzero;"/>
        <rect x="144" y="224" width="21" height="9" style="fill:rgb(29,130,234);"/>
        <path d="M246.6,480L265.4,480C267.394,479.946 269.005,478.291 269.005,476.296C269.005,476.231 269.003,476.165 269,476.1L269,403.214C260.372,404.343 251.635,404.37 243,403.292L243,415.492C243,415.903 243.136,416.33 243.135,416.768C243.134,417.206 243,417.609 243,418.01L243,476.1C242.997,476.165 242.995,476.23 242.995,476.294C242.995,478.29 244.606,479.945 246.6,480L246.6,480Z" style="fill:rgb(29,130,234);fill-rule:nonzero;"/>
        <path d="M135,435.586L135,422C125,421.793 124.484,421.59 123.982,421.423C118.422,419.6 114,416 110,411.4L110,435.586C110,437.696 112.226,439 114.336,439L130.748,439C132.858,439 135,437.7 135,435.586Z" style="fill:rgb(29,130,234);fill-rule:nonzero;"/>
        <path d="M238.761,390.558C244.331,391.566 249.98,392.075 255.641,392.081C261.527,392.07 267.4,391.53 273.189,390.467C273.82,390.23 274.487,390.102 275.161,390.088C281.249,388.866 287.215,387.095 292.983,384.795C290.868,379.654 288.496,374.622 285.877,369.718C285.501,369.228 285.203,368.683 284.994,368.102C280.936,360.781 276.368,354.186 272.042,350.859C262.58,358.176 249.254,358.136 239.835,350.764C232.723,356.116 224.4,371.898 219.217,384.864C224.925,387.219 230.85,389.007 236.907,390.204C237.54,390.223 238.166,390.343 238.761,390.558L238.761,390.558Z" style="fill:rgb(29,130,234);fill-rule:nonzero;"/>
        <path d="M401,435.586L401,411.977C397.884,416.315 393.492,419.576 388.438,421.303C387.902,421.489 387,421.719 377,421.952L377,435.586C376.997,435.643 376.995,435.7 376.995,435.757C376.995,437.543 378.465,439.012 380.25,439.012C380.344,439.012 380.438,439.008 380.531,439L397.231,439C399.341,439 401,437.7 401,435.586Z" style="fill:rgb(29,130,234);fill-rule:nonzero;"/>
        <path d="M415.468,363C414.551,352 412.068,337.822 407.707,327.7C407.529,340.46 407.355,353 407.201,363L415.468,363Z" style="fill:rgb(29,130,234);fill-rule:nonzero;"/>
        <path d="M116.923,368.056C117.035,368.514 117.092,368.984 117.094,369.456C117.094,369.88 117.048,370.303 116.958,370.718C117.158,385.699 117.307,395.75 117.344,396.7C117.91,402.625 121.813,407.733 127.381,409.836C134.23,410.245 190,410.582 231,410.729L231,401.156C217,398.02 209.354,393.448 208.838,393.156C206.292,391.742 205.114,388.677 206.059,385.922C208.537,379.119 211.409,372.466 214.659,365.996L206.859,255.228C206.8,254.54 206.77,253.85 206.77,253.159C206.77,239.906 217.676,228.999 230.93,228.999C230.991,228.999 231.051,229 231.111,229L280.889,229C280.953,228.999 281.017,228.999 281.081,228.999C294.341,228.999 305.254,239.911 305.254,253.172C305.254,253.862 305.224,254.552 305.165,255.239L296.765,364.639C300.393,371.502 303.569,378.593 306.275,385.869C307.238,388.7 305.974,391.842 303.319,393.218C296.19,396.642 288.705,399.269 281,401.051L281,410.728C322,410.565 377.846,410.195 384.829,409.75C390.319,407.604 394.117,402.49 394.586,396.615C394.625,395.624 394.825,385.657 395.049,370.826C394.832,369.865 394.857,368.865 395.12,367.916C395.354,352.346 395.647,332.092 395.931,311.316C395.921,311.077 395.925,310.838 395.943,310.599C396.509,269.142 397.043,225.855 397.043,213.957C397.036,192.099 393.48,155.885 390.343,123.933C388.474,104.899 386.709,86.92 385.867,73.809C384.648,54.771 368.48,38.26 349.821,37C345.998,36.74 341.73,36.436 337.131,36.108C312.783,34.375 279.439,32 254.158,32C229.299,32 199.191,34.242 177.208,35.878C171.842,36.278 166.874,36.648 162.461,36.952C143.804,38.244 127.622,54.779 126.392,73.812C125.552,86.856 123.786,104.749 121.918,123.693C118.792,155.379 115.25,191.293 115.236,212.97C115.222,231.625 116.3,321.2 116.923,368.056ZM178,237.021C178,241.398 174.398,245 170.021,245L139.979,245C135.602,245 132,241.398 132,237.021L132,219.979C132,215.602 135.602,212 139.979,212L170.021,212C174.398,212 178,215.602 178,219.979L178,237.021ZM381,237.021C381,241.398 377.398,245 373.021,245L342.979,245C338.602,245 335,241.398 335,237.021L335,219.979C335,215.602 338.602,212 342.979,212L373.021,212C377.398,212 381,215.602 381,219.979L381,237.021ZM129.252,172.01L136.152,81.082C137.212,67.145 149.441,56 163.418,56L348.178,56C362.245,56.141 374.046,67.067 375.268,81.082L382,172.107L382,172.059C383,178.99 380.446,185.427 375.833,190.404C371.264,195.345 364.798,198.109 358.07,198L153.525,198C153.388,198.002 153.251,198.004 153.115,198.004C139.976,198.004 129.165,187.192 129.165,174.054C129.165,173.371 129.194,172.69 129.252,172.01Z" style="fill:rgb(29,130,234);fill-rule:nonzero;"/>
        <path d="M153.525,186L358.07,186C361.455,186.085 364.717,184.707 367.016,182.221C369.332,179.721 371,176.432 370,172.869L370,172.893L363.285,81.976C362.547,74.189 355.999,68.131 348.178,68L163.418,68C155.709,68 148.704,74.3 148.118,81.989L141.218,173.014C140.907,176.409 142.063,179.78 144.392,182.27C146.771,184.747 150.092,186.103 153.525,186Z" style="fill:rgb(29,130,234);fill-rule:nonzero;"/>
        <rect x="347" y="224" width="21" height="9" style="fill:rgb(29,130,234);"/>
        <path d="M401,170.083C402.701,170.085 404.325,169.363 405.462,168.097L423.462,148.097C424.199,147.278 424.696,146.272 424.9,145.189L430.038,117.782C440.052,116.126 447.471,107.38 447.471,97.23C447.471,85.802 438.068,76.399 426.64,76.399C415.213,76.399 405.809,85.802 405.809,97.23C405.809,105.423 410.642,112.886 418.118,116.238L413.418,141.321L396.545,160.069C395.554,161.17 395.005,162.601 395.005,164.083C395.005,167.373 397.71,170.08 401,170.083Z" style="fill:rgb(29,130,234);fill-rule:nonzero;"/>
        <path d="M81.966,117.782L87.1,145.189C87.304,146.272 87.801,147.278 88.538,148.097L106.538,168.097C107.675,169.361 109.298,170.083 110.998,170.083C114.29,170.083 116.998,167.375 116.998,164.083C116.998,162.601 116.449,161.17 115.458,160.069L98.589,141.321L93.889,116.237C101.37,112.884 106.207,105.415 106.207,97.217C106.207,85.783 96.798,76.374 85.364,76.374C73.93,76.374 64.521,85.783 64.521,97.217C64.521,107.375 71.947,116.128 81.969,117.782L81.966,117.782Z" style="fill:rgb(29,130,234);fill-rule:nonzero;"/>
    </g>
</svg>
